<?xml version="1.0" encoding="utf-8"?>
<!-- Generator: Adobe Illustrator 24.0.2, SVG Export Plug-In . SVG Version: 6.00 Build 0)  -->
<svg version="1.1" id="b65f536e-d64e-4fca-b2e7-1a0e0783e7c4"
	 xmlns="http://www.w3.org/2000/svg" xmlns:xlink="http://www.w3.org/1999/xlink" x="0px" y="0px" viewBox="0 0 1980 5566.9"
	 style="enable-background:new 0 0 1980 5566.9;" xml:space="preserve">
<style type="text/css">
	.st0{fill:#E24040;}
</style>
<title>background</title>
<path class="st0" d="M589.6-0.3H1980v1080.5c0,0-138.8-234.1-412.7-342.3c-249.8-98.8-235.1-450.9-505.5-475.4
	C785.6,237.5,589.6-0.3,589.6-0.3z"/>
<rect x="168.3" y="1040.9" class="st0" width="504.5" height="418.7"/>
<rect x="1284.8" y="1600.5" class="st0" width="504.5" height="418.7"/>
<rect x="168.3" y="2297" class="st0" width="504.5" height="418.7"/>
<path class="st0" d="M1980,4789.7c-0.4-18-67.2-9.3-117.6,57.4c-26,34.4-65.8,163.6-113.8,214.5c-57,60.3-147.4,100.9-194,105.8
	c-127.6,13.4-182.3,135.3-182.3,135.3H1980V4789.7z"/>
</svg>
