<svg id="a7614b71-3095-4682-bea0-f9d2a29661c6" data-name="logo" xmlns="http://www.w3.org/2000/svg" viewBox="0 0 246.2 246.35"><defs><style>.f8033c92-37b4-4dd3-b95a-b25a10306490{fill:#fad02e;}.ac03b8ec-2aae-446a-9fed-49089337b933{fill:none;stroke:#000;stroke-miterlimit:10;stroke-width:8px;}.b892ec31-4308-4ace-9545-5bfe245da641{fill:#ed1c24;}</style></defs><title>logo</title><path class="f8033c92-37b4-4dd3-b95a-b25a10306490" d="M1079.15,498.13s-20.94-46-67.41-65.53c-38-16-100.34-7.32-100.34-7.32l12.9,44.29s-46.85,2.05-76,62.6c-19.91,42.34,15.64,127.12,82,128.51,73.19,1.53,92.77-24.51,111-56.17s-2-86.38-2-86.38Zm-133.83,85.7c-8.45.2-15.76-9.11-15.53-20,.21-10.1,8.4-19.33,12.42-17.41,3.83,1.83,3.41,20.61,7.15,20.68,2,.05,8.53-6.19,9.75-5.53C960.86,562.49,960,583.49,945.32,583.83Z" transform="translate(-838.18 -418.93)"/><path class="ac03b8ec-2aae-446a-9fed-49089337b933" d="M924.3,469.57l-12.9-44.29s62.38-8.68,100.34,7.32c46.47,19.57,67.41,65.53,67.41,65.53l-39.75,20s16.15,52.85,2,86.38c-14,33.19-53.1,61.28-111,56.17-66.15-5.84-103.74-81.7-82-128.51C877.45,471.62,924.3,469.57,924.3,469.57Z" transform="translate(-838.18 -418.93)"/><path class="ac03b8ec-2aae-446a-9fed-49089337b933" d="M942.21,546.38c3.83,1.83,3.41,20.61,7.15,20.68,2,.05,8.53-6.19,9.75-5.53,1.75,1,.85,22-13.79,22.3-8.45.2-15.76-9.11-15.53-20C930,553.69,938.19,544.46,942.21,546.38Z" transform="translate(-838.18 -418.93)"/><path class="b892ec31-4308-4ace-9545-5bfe245da641" d="M946.77,484.53c-48.48,0-87.77,37.11-87.77,82.9s39.29,82.89,87.77,82.89,87.76-37.11,87.76-82.89S995.24,484.53,946.77,484.53Zm-2,116.79c-17.25,0-31.24-15.18-31.24-33.89s14-33.9,31.24-33.9S976,548.71,976,567.43,962,601.32,944.77,601.32Z" transform="translate(-838.18 -418.93)"/></svg>